<?xml version="1.0" encoding="UTF-8"?>
<svg id="candy_icon" data-name="Layer 10" xmlns="http://www.w3.org/2000/svg" viewBox="0 0 610.78 717.39">
  <defs>
    <style>
      .cls-1 {
        stroke-width: 15px;
      }

      .cls-1, .cls-2, .cls-3 {
        stroke: #231f20;
        stroke-linecap: round;
        stroke-miterlimit: 10;
      }

      .cls-1, .cls-3 {
        fill: none;
      }

      .cls-2 {
        stroke-width: 2px;
      }

      .cls-3 {
        stroke-width: 25px;
      }
    </style>
  </defs>
  <ellipse class="cls-3" cx="307.75" cy="424.51" rx="157.21" ry="161.53"/>
  <ellipse class="cls-2" cx="217.01" cy="439.68" rx="26.04" ry="24.48"/>
  <ellipse class="cls-2" cx="396.92" cy="439.68" rx="26.04" ry="24.48"/>
  <path class="cls-1" d="m281.49,439.68s-3.44,29.89,26.26,29.5c29.7-.39,22.56-29.5,22.56-29.5"/>
  <path class="cls-3" d="m170.01,346.59s-17.15-42.56-67.66-36.35c-50.52,6.22-30.7,62.56-30.7,62.56,0,0-61.4,6.61-59.07,54.4,2.33,47.8,59.07,46.63,59.07,46.63,0,0-24.09,72.28,48.57,64.12,0,0,34.58-12.05,47.02-35.75"/>
  <path class="cls-3" d="m107.4,385.63s22.54,17.1,43.13,14.38"/>
  <path class="cls-3" d="m107.4,467.23s10.95-14.95,44.92-18.36"/>
  <path class="cls-3" d="m443.19,342.47s24.43-29.12,63.68-30.67c39.25-1.55,45.08,45.46,35.36,62.56,0,0,53.24,15.59,55.96,50.15s-55.18,49.33-55.18,49.33c0,0,27.04,48.65-24.87,67.61,0,0-48.74,10.96-73.72-37.07"/>
  <path class="cls-3" d="m464.96,398.45s27.14-1.17,36.86-14.77"/>
  <path class="cls-3" d="m464.96,452.08s27.92.45,36.86,12.08"/>
</svg>