<?xml version="1.0" encoding="UTF-8"?>
<svg id="cherry_icon" data-name="Layer 8" xmlns="http://www.w3.org/2000/svg" viewBox="0 0 610.78 717.39">
  <defs>
    <style>
      .cls-1, .cls-2, .cls-3 {
        stroke-width: 15px;
      }

      .cls-1, .cls-2, .cls-3, .cls-4 {
        stroke-miterlimit: 10;
      }

      .cls-1, .cls-3, .cls-4 {
        stroke: #231f20;
      }

      .cls-1, .cls-4 {
        fill: none;
      }

      .cls-2 {
        fill: #fff;
        stroke: #fff;
      }

      .cls-4 {
        stroke-width: 25px;
      }
    </style>
  </defs>
  <path class="cls-4" d="m284.26,307.7c7.61-20.32-3.73-63.26-6.96-80.75-.82-4.42,1.64-19.57,3.69-23.57,6.25-12.21,15.05-31.24,47.94-34.17,39.03-3.48,32.52-1.6,39.18-5.12,15.72-8.31,14.82-20.32-12.12-29.32-9.54-3.19-53.23,7.22-68.34,15.4s-21.75,13.48-27.11,20.55c-2.17,2.87-13.07,17.04-14.35,23.69-2.53,13.1-3.59,48.63-.26,61.42,3.71,14.23,8.49,37.09,18.2,47.88,3.98,4.42,18.09,9.44,20.13,4Z"/>
  <path class="cls-4" d="m245.93,255.82s-170.05-34.75-189.61,122.81c-6.7,53.96,3.91,266.33,250.27,254.21,135.97-6.69,191.73-146.98,192.33-208.5.62-63.76-50.94-211.31-212.43-161.13"/>
  <ellipse class="cls-3" cx="186.88" cy="456.42" rx="39.84" ry="37.08"/>
  <ellipse class="cls-3" cx="367.09" cy="450.93" rx="39.84" ry="37.08"/>
  <ellipse class="cls-1" cx="144.93" cy="525.52" rx="16.23" ry="15.11"/>
  <ellipse class="cls-1" cx="405.27" cy="525.52" rx="16.23" ry="15.11"/>
  <path class="cls-1" d="m256.04,522.79s31.22,51.16,56.09,0"/>
  <circle class="cls-2" cx="173.94" cy="435.87" r="2.68"/>
  <circle class="cls-2" cx="185.29" cy="451.6" r="4.82"/>
  <circle class="cls-2" cx="355.4" cy="431.52" r="2.68"/>
  <circle class="cls-2" cx="366.75" cy="447.25" r="4.82"/>
</svg>