<?xml version="1.0" encoding="UTF-8"?>
<svg id="Layer_9" data-name="Layer 9" xmlns="http://www.w3.org/2000/svg" viewBox="0 0 610.78 717.39">
  <defs>
    <style>
      .cls-1 {
        stroke-width: 13px;
      }

      .cls-1, .cls-2 {
        stroke-linecap: round;
      }

      .cls-1, .cls-2, .cls-3, .cls-4, .cls-5 {
        stroke: #231f20;
        stroke-miterlimit: 10;
      }

      .cls-1, .cls-3, .cls-5 {
        fill: none;
      }

      .cls-2 {
        stroke-width: 2px;
      }

      .cls-3 {
        stroke-width: 12px;
      }

      .cls-4 {
        stroke-width: 4px;
      }

      .cls-5 {
        stroke-width: 25px;
      }
    </style>
  </defs>
  <path class="cls-5" d="m65.37,378.6h435.16c11.52,0,20.46,10.04,19.13,21.48-2.08,17.87-6.74,41.33-10.61,50.66-4.1,9.88,110.76-1.35,63.72,88.97-47.9,91.98-124.8,65.64-146.91,64.04-.65-.05-1.28-.1-1.83.23-22.17,13.28-179.04,107.8-309.33-29.41,0,0-61.14-51.13-64.77-180.11-.24-8.69,6.76-15.86,15.45-15.86Z"/>
  <path class="cls-3" d="m492.41,483.52c1.47-2.14,4.03-3.25,6.59-2.85,14.06,2.24,74.84,5.61,28.09,60.62-1.58,1.86-9.35,9.33-19.51,16.83-20.42,15.06-56.85,23.43-57.02,5.48-.13-14.22,31.94-65.66,41.85-80.08Z"/>
  <circle class="cls-4" cx="182" cy="493.94" r="26.91"/>
  <circle class="cls-4" cx="391.38" cy="493.94" r="26.91"/>
  <path class="cls-1" d="m258.77,516.98s29.74,64.36,60.41,0"/>
  <path class="cls-2" d="m177.28,157.93s30.91,36.01,25.95,71.55c-.68,4.87-2.64,9.48-5.56,13.44-12.22,16.62-49.37,73.92-1.7,99.35,0,0-17.95-37.77,20.57-83.76,38.51-45.99-39.26-100.58-39.26-100.58Z"/>
  <path class="cls-2" d="m364.36,154.54s30.91,36.01,25.95,71.55c-.68,4.87-2.64,9.48-5.56,13.44-12.22,16.62-49.37,73.92-1.7,99.35,0,0-17.95-37.77,20.57-83.76,38.51-45.99-39.26-100.58-39.26-100.58Z"/>
  <path class="cls-2" d="m276.67,120.43s30.91,36.01,25.95,71.55c-.68,4.87-2.64,9.48-5.56,13.44-12.22,16.62-49.37,73.92-1.7,99.35,0,0-17.95-37.77,20.57-83.76,38.51-45.99-39.26-100.58-39.26-100.58Z"/>
</svg>