<?xml version="1.0" encoding="UTF-8"?>
<svg id="cupcake_icon" data-name="Layer 7" xmlns="http://www.w3.org/2000/svg" viewBox="0 0 610.78 717.39">
  <defs>
    <style>
      .cls-1 {
        stroke-width: 15px;
      }

      .cls-1, .cls-2 {
        fill: none;
        stroke: #231f20;
        stroke-miterlimit: 10;
      }

      .cls-2 {
        stroke-width: 25px;
      }
    </style>
  </defs>
  <path class="cls-2" d="m68.39,419.32l68.34,182.61c8.17,21.82,27.04,37.07,49.1,39.64,70.7,8.25,224.76,13.64,270.77-24.54"/>
  <path class="cls-2" d="m454.13,618.95c32.15-32.15,26.66-171.62,54.14-221.59,26.09-47.44,103.09-125.48,2.22-216.53-30.61-27.63-48.58-22.75-48.58-22.75,0,0-9.67-66.1-79.45-66.1-13.29,0-10.44-34.05-21.72-52.84-6.52-10.86-27.98-26.77-38.68-26.64l-14.07.12c-6.26.05-12.08,3.28-15.42,8.58-5.81,9.21-7.64,21.77-7.18,33.12h0c.54,13.43-7.89,25.42-20.22,28.73h0c-11.68,3.14-18.47.11-29.81-13.5h0c-1.53-2.88-4.41-4.66-7.53-4.66h-7.87c-11.22,0-21.93,4.99-29.49,13.76l-15.68,18.17c-5.53,6.4-8.83,14.6-9.38,23.25h0c-.71,11.2-9.25,20.05-19.86,20.58h0c-7.3.36-14.32,3.12-20.07,7.89l-23.11,19.17c-14.39,11.94-22.55,30.39-21.98,49.71h0c.32,10.86-3.44,21.42-10.46,29.37l-42.77,48.44c-9.2,10.42-14.42,24.09-14.65,38.35v5.55c-.22,14.01,4.83,27.53,14.03,37.61l45.31,44.02"/>
  <path class="cls-2" d="m68.71,419.85s83-45.85,125.35-41.56c49.42,5,171.63-.51,188.78-1.32,1.33-.06,2.6-.18,3.91-.36,16.04-2.2,88.83,5.4,128.25,12.07"/>
  <path class="cls-2" d="m80.37,230.5c0-27.52,76.48-15.52,103.83-8.07,64.95,17.71,67.38,6.44,89.61,3.35,55.59-7.75,92.2,2.25,124.86,8.5,31.36,6,64.96-75.61,64.96-75.61"/>
  <path class="cls-2" d="m157.75,134.64s33.18,28.65,75.22,23.12c19.44-2.56,44.24-10.22,77.36-5.64,45.35,6.27,69.62-60.63,69.62-60.63"/>
  <ellipse class="cls-1" cx="185.43" cy="520.55" rx="41.99" ry="39.77"/>
  <ellipse class="cls-1" cx="404.14" cy="509.45" rx="41.99" ry="39.77"/>
  <ellipse class="cls-1" cx="161.81" cy="569.04" rx="18.37" ry="12.95"/>
  <ellipse class="cls-1" cx="438.23" cy="556.09" rx="18.37" ry="12.95"/>
  <ellipse class="cls-1" cx="294.78" cy="560.31" rx="14.68" ry="34.22"/>
</svg>