<?xml version="1.0" encoding="UTF-8"?>
<svg id="Layer_6" data-name="Layer 6" xmlns="http://www.w3.org/2000/svg" viewBox="0 0 610.78 717.39">
  <defs>
    <style>
      .cls-1 {
        fill: #231f20;
        stroke-width: 15px;
      }

      .cls-1, .cls-2, .cls-3 {
        stroke: #231f20;
        stroke-miterlimit: 10;
      }

      .cls-2 {
        stroke-width: 10px;
      }

      .cls-2, .cls-4, .cls-3 {
        fill: none;
      }

      .cls-3 {
        stroke-width: 25px;
      }
    </style>
  </defs>
  <ellipse class="cls-4" cx="202.55" cy="673.61" rx=".5" ry="3.75"/>
  <ellipse class="cls-3" cx="305.82" cy="472.23" rx="282" ry="226"/>
  <path class="cls-3" d="m240.07,442.02s62.7-53.74,129.47.62"/>
  <ellipse class="cls-1" cx="213.71" cy="600.23" rx="15.2" ry="14.13"/>
  <ellipse class="cls-1" cx="392.7" cy="600.23" rx="15.2" ry="14.13"/>
  <ellipse class="cls-3" cx="302.58" cy="431.28" rx="68.39" ry="42.51"/>
  <path class="cls-2" d="m279.37,612.49s30.42,41.13,54.62,0"/>
  <path class="cls-3" d="m52.56,377.8c0,22.99,33.9,32.13,39.81,45.79,6.02,13.91-23.82,44.85-16.18,58.05,9.37,16.21,61.69.85,78.32,10.83,8.09,4.85,10.14,26.59,18.12,31.58,11.68,7.3,42.77.92,55.99,5.41,15.22,5.17,31.52,38.88,47.58,40.91,19.44,2.46,47.16-33.1,64.73-41.21,8.03-3.7,35.6-3.91,35.6-3.91,0,0,25.85,12.24,33.98,9.02,18.78-7.44,21.29-56.44,38.19-67.08,15.52-9.76,57.93,4.68,74.9-2.71,11.44-4.98,32.83-23.19,33.84-34.89.95-11.06-19.38-28.98-20.71-40.01-.99-8.17,13.25-30.49,13.25-30.49"/>
</svg>