<?xml version="1.0" encoding="UTF-8"?>
<svg id="Layer_4" data-name="Layer 4" xmlns="http://www.w3.org/2000/svg" viewBox="0 0 610.78 717.39">
  <defs>
    <style>
      .cls-1 {
        stroke-width: 5px;
      }

      .cls-1, .cls-2, .cls-3, .cls-4 {
        stroke: #231f20;
        stroke-miterlimit: 10;
      }

      .cls-1, .cls-3, .cls-4 {
        fill: none;
      }

      .cls-2 {
        fill: #231f20;
      }

      .cls-2, .cls-3 {
        stroke-width: 15px;
      }

      .cls-4 {
        stroke-width: 25px;
      }
    </style>
  </defs>
  <path class="cls-4" d="m234.57,622.95c-17.73-31.11,9.31-93.64,9.31-93.64,0,0-125.7-10.81-145.48-41.29-24.76-38.15-10.93-235.31-7.11-309.31,9.71-188.07,404.6-209.32,415.25,9.68,9.66,198.62,5.37,252.99-11.86,303.66-10.76,31.63-126.57,37.8-146,37.8,6.59,27.45,7.49,63.53,2.14,90.62"/>
  <path class="cls-4" d="m233.18,614.01c-7.28,25.43,96.13,69.36,118.21,3.31"/>
  <ellipse class="cls-2" cx="189.65" cy="455.1" rx="25.3" ry="23.26"/>
  <ellipse class="cls-2" cx="401.38" cy="455.1" rx="25.3" ry="23.26"/>
  <path class="cls-3" d="m268.43,459.66l54.16.96s3.96,30.06-23.21,30.96c-35.49,1.18-30.95-31.92-30.95-31.92Z"/>
  <ellipse class="cls-1" cx="157.12" cy="488.25" rx="12.45" ry="6.44"/>
  <ellipse class="cls-1" cx="434.24" cy="488.25" rx="12.45" ry="6.44"/>
  <path class="cls-3" d="m84.04,400.72s44.63-97.15,130.92-84.37,62,71.57,128.46,71.57c56.74,0,94.84-46.1,104.78-59.6,2.56-3.48,5.59-6.56,9.05-9.15,11.27-8.45,35.14-21.39,54.34,1.65"/>
</svg>