<?xml version="1.0" encoding="UTF-8"?>
<svg id="Layer_3" data-name="Layer 3" xmlns="http://www.w3.org/2000/svg" viewBox="0 0 612 792">
  <defs>
    <style>
      .cls-1 {
        font-family: MADEAvenuePERSONALUSE-Regular, 'MADE Avenue PERSONAL USE';
        font-size: 326.63px;
        stroke-width: .5px;
      }

      .cls-1, .cls-2 {
        stroke: #0e0e0e;
      }

      .cls-1, .cls-2, .cls-3 {
        stroke-miterlimit: 10;
      }

      .cls-4 {
        fill: #0e0e0e;
      }

      .cls-2, .cls-3 {
        fill: none;
        stroke-width: 12px;
      }

      .cls-3 {
        stroke: #000;
      }

      .cls-5 {
        fill: #231f20;
      }
    </style>
  </defs>
  <text class="cls-1" transform="translate(44.19 515.91)"><tspan class="cls-5" x="0" y="0">C</tspan><tspan class="cls-4" x="206.1" y="0">R</tspan></text>
  <g>
    <path class="cls-2" d="m500.27,445.55c15.93-24.98,45.88-5.07,43.78-6.27"/>
    <path class="cls-3" d="m497.91,499.27s7.73-27.91,23.35-43.56c17.24-17.28,40.19-20.17,39.5-19.83,0,0,.69,38.22-.46,44.99-1.16,6.77-4.51,20.21-20.14,24.92-5.31,1.6-10.51,2.35-15.37,2.46-9.45.21-17.57-2-22.54-5.11-7.52-4.71-11.89-17.23-11.89-17.23,1.25,2.66-4.92-7.88-3.41-43.76.21-5.07,28.6,13.94,30.57,17.71"/>
  </g>
</svg>