<?xml version="1.0" encoding="UTF-8"?>
<svg id="Layer_5" data-name="Layer 5" xmlns="http://www.w3.org/2000/svg" viewBox="0 0 610.78 717.39">
  <defs>
    <style>
      .cls-1 {
        fill: #231f20;
        stroke-width: 15px;
      }

      .cls-1, .cls-2, .cls-3 {
        stroke: #231f20;
        stroke-miterlimit: 10;
      }

      .cls-2 {
        stroke-width: 10px;
      }

      .cls-2, .cls-3 {
        fill: none;
      }

      .cls-3 {
        stroke-width: 25px;
      }
    </style>
  </defs>
  <polyline class="cls-3" points="309.72 426.22 304.53 704.47 372.71 704.82 371.36 428.18"/>
  <path class="cls-3" d="m317.3,437.19s-175.51-109.99-201.81-166.4c-48.74-104.54,11.95-158.49,53.35-179.7,90.28-46.23,170.01,39.95,170.01,39.95l20.16.44s58.19-51.89,107.87-48.66c108.75,7.07,117.66,80.3,117.66,80.3,0,0,11.67,62.93-12.1,95.98-3.77,5.24-38.96,48.54-43.77,53.06-31.72,29.76-116.9,103.98-165.36,127.2"/>
  <ellipse class="cls-1" cx="252.67" cy="319.24" rx="19.26" ry="17.05"/>
  <ellipse class="cls-1" cx="414.32" cy="319.24" rx="19.26" ry="17.05"/>
  <path class="cls-2" d="m312.55,336.29l52.13.1s-4.9,25.01-23.45,25.7c-23.27.87-28.69-25.79-28.69-25.79Z"/>
</svg>