<?xml version="1.0" encoding="UTF-8"?>
<svg id="Layer_11" data-name="Layer 11" xmlns="http://www.w3.org/2000/svg" viewBox="0 0 610.78 717.39">
  <defs>
    <style>
      .cls-1 {
        stroke-width: 15px;
      }

      .cls-1, .cls-2, .cls-3 {
        stroke: #231f20;
        stroke-linecap: round;
        stroke-miterlimit: 10;
      }

      .cls-1, .cls-3 {
        fill: none;
      }

      .cls-2 {
        stroke-width: 2px;
      }

      .cls-3 {
        stroke-width: 25px;
      }
    </style>
  </defs>
  <path class="cls-3" d="m164.58,205.82s159.52-23.74,280.46,0c120.94,23.74,149.88,137.26,114.26,234.46-35.61,97.2-163.97,201.07-163.97,201.07,0,0-87.55,61.58-186.23,0-98.68-61.58-162.67-210.71-167.68-247.07-5.94-43.03-28.19-160.26,123.16-188.46Z"/>
  <circle class="cls-2" cx="429.73" cy="463.09" r="35.43"/>
  <circle class="cls-2" cx="181.27" cy="463.09" r="35.43"/>
  <path class="cls-1" d="m270.66,469.39s2.87,34.3,34.47,34.56c28.5.23,31.54-33.86,31.54-33.86"/>
  <circle class="cls-2" cx="225.35" cy="359.84" r="7.03"/>
  <circle class="cls-2" cx="348.05" cy="601.34" r="7.03"/>
  <circle class="cls-2" cx="206.66" cy="259.54" r="7.03"/>
  <circle class="cls-2" cx="133.89" cy="302" r="7.03"/>
  <path class="cls-3" d="m173.16,201.21s-49.91-81.52-13.86-110.91,94.27,52.68,94.27,52.68c0,0-3.5-110.91,50.1-114.24s52.49,114.24,52.49,114.24c0,0,63.77-74.31,95.94-53.24,32.16,21.07-17.19,111.47-17.19,111.47"/>
</svg>